<svg width="150" height="150" viewBox="0 0 150 150" fill="none" xmlns="http://www.w3.org/2000/svg">
<rect width="150" height="150" rx="16" fill="#EF4565"/>
<path d="M21.964 114V38.4H54.688C61.456 38.4 67.288 39.516 72.184 41.748C77.08 43.908 80.86 47.04 83.524 51.144C86.188 55.248 87.52 60.144 87.52 65.832C87.52 71.448 86.188 76.308 83.524 80.412C80.86 84.444 77.08 87.54 72.184 89.7C67.288 91.86 61.456 92.94 54.688 92.94H31.684L39.46 85.272V114H21.964ZM70.024 114L51.124 86.568H69.808L88.924 114H70.024ZM39.46 87.216L31.684 79.008H53.716C59.116 79.008 63.148 77.856 65.812 75.552C68.476 73.176 69.808 69.936 69.808 65.832C69.808 61.656 68.476 58.416 65.812 56.112C63.148 53.808 59.116 52.656 53.716 52.656H31.684L39.46 44.34V87.216Z" fill="white"/>
<path d="M94.88 72V50.48H101.12V72H94.88ZM98 47.48C96.8533 47.48 95.92 47.1467 95.2 46.48C94.48 45.8133 94.12 44.9867 94.12 44C94.12 43.0133 94.48 42.1867 95.2 41.52C95.92 40.8533 96.8533 40.52 98 40.52C99.1467 40.52 100.08 40.84 100.8 41.48C101.52 42.0933 101.88 42.8933 101.88 43.88C101.88 44.92 101.52 45.7867 100.8 46.48C100.107 47.1467 99.1733 47.48 98 47.48ZM119.991 50.16C121.698 50.16 123.218 50.5067 124.551 51.2C125.911 51.8667 126.978 52.9067 127.751 54.32C128.525 55.7067 128.911 57.4933 128.911 59.68V72H122.671V60.64C122.671 58.9067 122.285 57.6267 121.511 56.8C120.765 55.9733 119.698 55.56 118.311 55.56C117.325 55.56 116.431 55.7733 115.631 56.2C114.858 56.6 114.245 57.2267 113.791 58.08C113.365 58.9333 113.151 60.0267 113.151 61.36V72H106.911V50.48H112.871V56.44L111.751 54.64C112.525 53.2 113.631 52.0933 115.071 51.32C116.511 50.5467 118.151 50.16 119.991 50.16Z" fill="white"/>
</svg>
